<svg xmlns="http://www.w3.org/2000/svg" viewBox="0 0 96 96" role="img" aria-label="Caíque Romero — Baixo">
  <!-- Caíque Romero (Baixo) · accent token bq-stat-fatigue #ff6b4a -->
  <ellipse cx="48" cy="40" rx="18" ry="16" fill="#1b1b20"/>
  <path d="M12 96C12 77 29 69 48 69s36 8 36 27Z" fill="#ff6b4a"/>
  <rect x="42" y="54" width="12" height="18" fill="#c2885a"/>
  <ellipse cx="48" cy="46" rx="16" ry="19" fill="#c2885a"/>
  <path d="M31 39Q48 31 65 39L65 43Q48 36 31 43Z" fill="#ff6b4a"/>
  <path d="M65 41l7 -2l-2 7z" fill="#e0563a"/>
  <circle cx="41" cy="47" r="2.3" fill="#1d130c"/>
  <circle cx="55" cy="47" r="2.3" fill="#1d130c"/>
  <path d="M40 54q8 8 16 0q-8 4.5-16 0Z" fill="#5a2e1e"/>
  <path d="M43 55.5q5 3 10 0q-5 2-10 0Z" fill="#ffffff"/>
</svg>
