<svg xmlns="http://www.w3.org/2000/svg" viewBox="0 0 96 96" role="img" aria-label="Juçara Bonfim — Vocal">
  <!-- Juçara Bonfim (Vocal) · accent token bq-ember #e2473b -->
  <ellipse cx="48" cy="40" rx="18" ry="18" fill="#1b1b20"/>
  <rect x="30" y="50" width="4.5" height="22" rx="2.2" fill="#1b1b20"/>
  <rect x="61.5" y="50" width="4.5" height="22" rx="2.2" fill="#1b1b20"/>
  <path d="M12 96C12 77 29 69 48 69s36 8 36 27Z" fill="#e2473b"/>
  <rect x="42" y="54" width="12" height="18" fill="#7a5238"/>
  <ellipse cx="48" cy="46" rx="16" ry="19" fill="#7a5238"/>
  <path d="M37 40q4-2.5 8 0" fill="none" stroke="#1b1b20" stroke-width="1.6" stroke-linecap="round"/>
  <path d="M51 40q4-2.5 8 0" fill="none" stroke="#1b1b20" stroke-width="1.6" stroke-linecap="round"/>
  <circle cx="41" cy="46" r="2.3" fill="#15100b"/>
  <circle cx="55" cy="46" r="2.3" fill="#15100b"/>
  <path d="M43 55q5 2.5 10 0" fill="none" stroke="#5e3a2a" stroke-width="2" stroke-linecap="round"/>
  <circle cx="31.5" cy="54" r="2" fill="#f5a623"/>
</svg>
