<svg xmlns="http://www.w3.org/2000/svg" viewBox="0 0 96 96" role="img" aria-label="Mari Sato — Bateria">
  <!-- Mari Sato (Bateria) · accent token bq-stat-cash #46d39a -->
  <ellipse cx="48" cy="39" rx="19" ry="17" fill="#1b1b20"/>
  <rect x="29" y="38" width="6" height="18" rx="3" fill="#1b1b20"/>
  <rect x="61" y="38" width="6" height="18" rx="3" fill="#1b1b20"/>
  <path d="M12 96C12 77 29 69 48 69s36 8 36 27Z" fill="#46d39a"/>
  <rect x="42" y="54" width="12" height="18" fill="#f0caa8"/>
  <ellipse cx="48" cy="46" rx="16" ry="19" fill="#f0caa8"/>
  <path d="M34 36q5 -2 9 1" fill="none" stroke="#1b1b20" stroke-width="2.4" stroke-linecap="round"/>
  <path d="M37 41q4-2 8 0" fill="none" stroke="#1b1b20" stroke-width="1.4" stroke-linecap="round"/>
  <path d="M51 41q4-2 8 0" fill="none" stroke="#1b1b20" stroke-width="1.4" stroke-linecap="round"/>
  <circle cx="41" cy="46.5" r="2.2" fill="#241c18"/>
  <circle cx="55" cy="46.5" r="2.2" fill="#241c18"/>
  <path d="M43 55q5 3 10 0" fill="none" stroke="#b07d68" stroke-width="2" stroke-linecap="round"/>
</svg>
