<svg xmlns="http://www.w3.org/2000/svg" viewBox="0 0 96 96" role="img" aria-label="Cacá Lemos — Teclado">
  <!-- Cacá Lemos (Teclado) · accent token bq-stat-fans #ff5c8a -->
  <ellipse cx="48" cy="38" rx="19" ry="18" fill="#2bb3a3"/>
  <rect x="30" y="44" width="6" height="16" rx="3" fill="#2bb3a3"/>
  <rect x="60" y="44" width="6" height="16" rx="3" fill="#2bb3a3"/>
  <path d="M12 96C12 77 29 69 48 69s36 8 36 27Z" fill="#ff5c8a"/>
  <rect x="42" y="54" width="12" height="18" fill="#f1cdb0"/>
  <ellipse cx="48" cy="46" rx="16" ry="19" fill="#f1cdb0"/>
  <path d="M37 40q4-2.5 8 0" fill="none" stroke="#1f7d72" stroke-width="1.5" stroke-linecap="round"/>
  <path d="M51 40q4-2.5 8 0" fill="none" stroke="#1f7d72" stroke-width="1.5" stroke-linecap="round"/>
  <circle cx="41" cy="46" r="2.3" fill="#241c18"/>
  <circle cx="55" cy="46" r="2.3" fill="#241c18"/>
  <path d="M39 54q9 9 18 0q-9 5-18 0Z" fill="#5a2330"/>
  <path d="M42.5 55.5q5.5 3.5 11 0q-5.5 2.5-11 0Z" fill="#ffffff"/>
</svg>
