<svg xmlns="http://www.w3.org/2000/svg" viewBox="0 0 96 96" role="img" aria-label="Aílton Reis — Teclado">
  <!-- Aílton Reis (Teclado) · accent token bq-spotlight #f5a623 -->
  <ellipse cx="48" cy="38" rx="19" ry="17" fill="#1b1b20"/>
  <rect x="33" y="20" width="4" height="16" rx="2" fill="#1b1b20"/>
  <rect x="41" y="18" width="4" height="16" rx="2" fill="#1b1b20"/>
  <rect x="49" y="18" width="4" height="16" rx="2" fill="#1b1b20"/>
  <rect x="57" y="20" width="4" height="16" rx="2" fill="#1b1b20"/>
  <rect x="29" y="46" width="4.5" height="22" rx="2.2" fill="#1b1b20"/>
  <rect x="62.5" y="46" width="4.5" height="22" rx="2.2" fill="#1b1b20"/>
  <path d="M12 96C12 77 29 69 48 69s36 8 36 27Z" fill="#f5a623"/>
  <rect x="42" y="54" width="12" height="18" fill="#5e4032"/>
  <ellipse cx="48" cy="46" rx="16" ry="19" fill="#5e4032"/>
  <path d="M37 40q4-2.5 8 0" fill="none" stroke="#1b1b20" stroke-width="1.6" stroke-linecap="round"/>
  <path d="M51 40q4-2.5 8 0" fill="none" stroke="#1b1b20" stroke-width="1.6" stroke-linecap="round"/>
  <circle cx="41" cy="46" r="2.3" fill="#130d09"/>
  <circle cx="55" cy="46" r="2.3" fill="#130d09"/>
  <path d="M43 54q5 3 10 0" fill="none" stroke="#3f2a20" stroke-width="2" stroke-linecap="round"/>
</svg>
