<svg xmlns="http://www.w3.org/2000/svg" viewBox="0 0 96 96" role="img" aria-label="Téo Vasconcelos — Guitarra">
  <!-- Téo Vasconcelos (Guitarra) · accent token bq-stat-fans #ff5c8a -->
  <rect x="27" y="40" width="7" height="38" rx="3.5" fill="#2a2320"/>
  <rect x="62" y="40" width="7" height="38" rx="3.5" fill="#2a2320"/>
  <ellipse cx="48" cy="40" rx="19" ry="19" fill="#2a2320"/>
  <path d="M12 96C12 77 29 69 48 69s36 8 36 27Z" fill="#ff5c8a"/>
  <rect x="42" y="54" width="12" height="18" fill="#e0b08a"/>
  <ellipse cx="48" cy="46" rx="16" ry="19" fill="#e0b08a"/>
  <path d="M37 40q4-2.5 8 0" fill="none" stroke="#2a2320" stroke-width="1.6" stroke-linecap="round"/>
  <path d="M51 40q4-2.5 8 0" fill="none" stroke="#2a2320" stroke-width="1.6" stroke-linecap="round"/>
  <circle cx="41" cy="46" r="2.3" fill="#241c18"/>
  <circle cx="55" cy="46" r="2.3" fill="#241c18"/>
  <path d="M39 54q9 9 18 0q-9 5-18 0Z" fill="#5a2330"/>
  <path d="M42.5 55.5q5.5 3.5 11 0q-5.5 2.5-11 0Z" fill="#ffffff"/>
</svg>
